<svg width="64" height="64" viewBox="0 0 64 64" fill="none" xmlns="http://www.w3.org/2000/svg">
<path d="M32.0002 25.3332C31.1064 25.2611 30.2077 25.3841 29.3661 25.6937C28.5246 26.0032 27.7604 26.4919 27.1263 27.126C26.4923 27.76 26.0036 28.5242 25.694 29.3658C25.3845 30.2073 25.2615 31.1061 25.3335 31.9998C25.2615 32.8936 25.3845 33.7924 25.694 34.6339C26.0036 35.4754 26.4923 36.2397 27.1263 36.8737C27.7604 37.5078 28.5246 37.9965 29.3661 38.306C30.2077 38.6156 31.1064 38.7386 32.0002 38.6665C32.894 38.7386 33.7927 38.6156 34.6343 38.306C35.4758 37.9965 36.24 37.5078 36.8741 36.8737C37.5081 36.2397 37.9968 35.4754 38.3064 34.6339C38.6159 33.7924 38.7389 32.8936 38.6669 31.9998C38.7389 31.1061 38.6159 30.2073 38.3064 29.3658C37.9968 28.5242 37.5081 27.76 36.8741 27.126C36.24 26.4919 35.4758 26.0032 34.6343 25.6937C33.7927 25.3841 32.894 25.2611 32.0002 25.3332Z" fill="#1E1919"/>
<path d="M53.8055 31.14C53.5108 30.5227 46.4308 16 32.0002 16C17.5695 16 10.4895 30.5227 10.1948 31.14L9.78418 32L10.1935 32.86C10.4895 33.4773 17.5695 48 32.0002 48C46.4308 48 53.5108 33.4773 53.8055 32.86L54.2162 32L53.8055 31.14ZM32.0002 44C21.9455 44 15.9215 34.88 14.2668 32C15.9202 29.1173 21.9428 20 32.0002 20C42.0575 20 48.0762 29.116 49.7335 32C48.0762 34.884 42.0522 44 32.0002 44Z" fill="#1E1919"/>
</svg>
