<svg width="64" height="64" viewBox="0 0 64 64" fill="none" xmlns="http://www.w3.org/2000/svg">
<path d="M42 23V17C42 11.7 37.888 8 32 8C26.112 8 22 11.7 22 17V23H14V46C14.0029 48.6513 15.0574 51.1931 16.9321 53.0679C18.8069 54.9426 21.3487 55.9971 24 56H40C42.6513 55.9971 45.1931 54.9426 47.0679 53.0679C48.9426 51.1931 49.9971 48.6513 50 46V23H42ZM26 17C26 13.31 29.232 12 32 12C34.768 12 38 13.31 38 17V23H26V17ZM46 46C45.9981 47.5907 45.3654 49.1158 44.2406 50.2406C43.1158 51.3654 41.5907 51.9981 40 52H24C22.4093 51.9981 20.8842 51.3654 19.7594 50.2406C18.6346 49.1158 18.0019 47.5907 18 46V27H46V46Z" fill="#1E1919"/>
<path d="M30 41.676V47H34V41.676C34.9441 41.3342 35.7495 40.6911 36.2917 39.8459C36.8339 39.0008 37.0828 38.0007 37 37C37.054 36.3297 36.9618 35.6556 36.7296 35.0245C36.4975 34.3933 36.1309 33.8201 35.6554 33.3446C35.1799 32.8691 34.6067 32.5025 33.9755 32.2704C33.3444 32.0382 32.6703 31.946 32 32C31.3297 31.946 30.6556 32.0382 30.0245 32.2704C29.3933 32.5025 28.8201 32.8691 28.3446 33.3446C27.8691 33.8201 27.5025 34.3933 27.2704 35.0245C27.0382 35.6556 26.946 36.3297 27 37C26.9172 38.0007 27.1661 39.0008 27.7083 39.8459C28.2505 40.6911 29.0559 41.3342 30 41.676Z" fill="#1E1919"/>
</svg>
