<svg width="64" height="64" viewBox="0 0 64 64" fill="none" xmlns="http://www.w3.org/2000/svg">
<path fill-rule="evenodd" clip-rule="evenodd" d="M40.086 22.0272C36.8147 22.0272 34.4667 23.5592 33.1375 25.8602C31.9636 27.8922 31.7305 30.2574 31.7305 32C31.7305 33.7426 31.9636 36.1078 33.1375 38.1398C33.2564 38.3456 33.3835 38.5453 33.5186 38.7383H33.3477C27.3933 38.7383 22.5663 43.5653 22.5663 49.5197V57.0667H57.0667V49.5197C57.0667 43.6871 52.4351 38.9363 46.6492 38.7444C46.786 38.5495 46.9144 38.3478 47.0346 38.1398C48.2084 36.1078 48.4416 33.7426 48.4416 32C48.4416 30.2574 48.2084 27.8922 47.0346 25.8602C45.7054 23.5592 43.3574 22.0272 40.086 22.0272ZM40.086 38.7383C44.3189 38.7383 45.2072 35.0739 45.2072 32C45.2072 28.9261 44.3189 25.2617 40.086 25.2617C35.8532 25.2617 34.9649 28.9261 34.9649 32C34.9649 35.0739 35.8532 38.7383 40.086 38.7383ZM33.3477 41.9728C29.1796 41.9728 25.8007 45.3516 25.8007 49.5197V53.8323H53.8323V49.5197C53.8323 45.3516 50.4534 41.9728 46.2853 41.9728H33.3477Z" fill="#1E1919"/>
<path fill-rule="evenodd" clip-rule="evenodd" d="M17.5045 10.7663C18.8337 8.46534 21.1817 6.93333 24.4531 6.93333C27.7244 6.93333 30.0724 8.46534 31.4016 10.7663C32.5755 12.7983 32.8086 15.1635 32.8086 16.9061C32.8086 18.1269 32.6942 19.6534 32.222 21.1567C31.7498 22.6601 28.9183 26.8789 28.9183 26.8789H17.7147C13.5466 26.8789 10.1678 30.2577 10.1678 34.4258V38.7383H22.0712L20.2039 41.9728H6.93335V34.4258C6.93335 28.4714 11.7603 23.6444 17.7147 23.6444H17.8857C17.7505 23.4514 17.6234 23.2517 17.5045 23.0459C16.3307 21.0139 16.0975 18.6487 16.0975 16.9061C16.0975 15.1635 16.3307 12.7983 17.5045 10.7663ZM29.5742 16.9061C29.5742 19.98 28.6859 23.6444 24.4531 23.6444C20.2202 23.6444 19.3319 19.98 19.3319 16.9061C19.3319 13.8322 20.2202 10.1677 24.4531 10.1677C28.6859 10.1677 29.5742 13.8322 29.5742 16.9061Z" fill="#1E1919"/>
</svg>
