<svg width="64" height="64" viewBox="0 0 64 64" fill="none" xmlns="http://www.w3.org/2000/svg">
<path fill-rule="evenodd" clip-rule="evenodd" d="M23.6057 23.8339V43.8958L17.1029 53.492L10.6001 43.8958V16.3932C10.6001 14.8218 11.2604 13.3356 12.4072 12.2556C13.5497 11.1796 15.0697 10.6019 16.626 10.6019H17.5688C19.1588 10.5859 20.6824 11.1879 21.8054 12.262C22.948 13.3415 23.6057 14.8249 23.6057 16.3932V19.8339L32.3726 19.834V32.053H28.3726V23.834L23.6057 23.8339ZM17.6043 14.6017C18.1666 14.5948 18.6826 14.8091 19.0427 15.1547L19.0563 15.1675C19.4244 15.5142 19.6057 15.9568 19.6057 16.3932V19.8339L14.6001 19.8339V16.3932C14.6001 15.9568 14.7814 15.5142 15.1496 15.1675C15.5221 14.8167 16.0501 14.6019 16.626 14.6019H17.5921L17.6043 14.6017ZM14.6001 23.8339V42.6681L17.1029 46.3615L19.6057 42.6681V23.8339L14.6001 23.8339Z" fill="#1E1919"/>
<path fill-rule="evenodd" clip-rule="evenodd" d="M40.2485 41.4707C39.6797 41.6662 38.8387 42.129 37.7411 42.9315C36.4748 43.8574 35.0826 45.0713 33.6897 46.3685C32.4913 47.4847 31.3262 48.6304 30.2645 49.6744C30.095 49.8411 29.9281 50.0052 29.7641 50.1662C28.6143 51.2951 27.5346 52.3451 26.7706 52.9481L24.2923 49.8084C24.8471 49.3705 25.7507 48.501 26.9618 47.3119C27.1221 47.1546 27.2866 46.9928 27.4548 46.8274C28.5144 45.7853 29.7221 44.5977 30.9636 43.4414C32.3991 42.1045 33.9253 40.7663 35.3802 39.7026C36.771 38.6856 38.3418 37.732 39.8326 37.451L39.8642 37.445L39.896 37.4401C40.8053 37.2988 41.8264 37.3716 42.7073 37.9798C43.5901 38.5892 43.9756 39.4898 44.1332 40.249C44.4243 41.6509 44.1017 43.3474 43.7546 44.7082C43.497 45.7183 43.1657 46.7553 42.8569 47.6782C43.62 47.2183 44.3785 46.7225 44.9919 46.3126C45.2514 46.1393 45.4796 45.9849 45.6728 45.8541C45.7353 45.8119 45.7941 45.7721 45.8491 45.7349C45.9584 45.6611 46.0589 45.5936 46.139 45.541L46.143 45.5384C46.1734 45.518 46.3504 45.3998 46.5212 45.3201C47.0378 45.079 47.7297 44.8544 48.4965 44.9682C49.3707 45.0979 49.9721 45.6058 50.3347 46.1285C50.6486 46.581 50.807 47.0737 50.8959 47.3798C50.9472 47.5563 51.015 47.8252 51.0675 48.0331C51.0933 48.1356 51.1154 48.2232 51.13 48.2777C51.2459 48.7117 51.3315 48.8747 51.3638 48.9261C51.4374 48.9438 51.602 48.9608 51.9129 48.9168L55.3843 47.9622L56.4449 51.819L52.7625 52.8317L52.6596 52.8487C51.1255 53.1028 49.7315 52.8583 48.6828 51.9024C47.8707 51.1622 47.5193 50.1994 47.3341 49.5583C47.2948 49.5846 47.2547 49.6114 47.2141 49.6386C46.5053 50.1121 45.5654 50.7262 44.6173 51.2856C43.7032 51.8248 42.654 52.3904 41.7588 52.6922C41.3589 52.827 40.7003 53.0143 40.0101 52.9201C39.6231 52.8673 39.0997 52.7082 38.6476 52.2759C38.178 51.8268 37.9817 51.2714 37.9299 50.7967C37.887 50.3999 37.9504 50.0333 37.9873 49.8437C38.0329 49.6089 38.0979 49.3625 38.1657 49.1284C38.3011 48.6606 38.4911 48.0965 38.6868 47.5208C38.711 47.4497 38.7353 47.378 38.7599 47.3059C39.1469 46.1686 39.5749 44.9109 39.8787 43.7198C40.1362 42.7098 40.245 41.9585 40.2485 41.4707ZM51.3145 48.9067C51.3145 48.9067 51.3276 48.9089 51.3463 48.9214C51.3226 48.9144 51.3145 48.9067 51.3145 48.9067Z" fill="#1E1919"/>
</svg>
